<svg xmlns="http://www.w3.org/2000/svg" data-name="Layer 1" viewBox="0 0 104 130" x="0px" y="0px"><circle cx="52" cy="52" r="26.26"/><path d="M102,52a1,1,0,0,1-.62.93L83.91,60.1a1.06,1.06,0,0,1-.38.07A1,1,0,0,1,83,60a1,1,0,0,1-.44-.83V44.83A1,1,0,0,1,83,44a1,1,0,0,1,.94-.1l17.47,7.17A1,1,0,0,1,102,52Z"/><path d="M68.51,25.34a1,1,0,0,1-.27-.9,1,1,0,0,1,.6-.73l17.42-7.28a1,1,0,0,1,1.09.21,1,1,0,0,1,.22,1.1L80.28,35.16a1,1,0,0,1-.73.6l-.19,0a1,1,0,0,1-.71-.3Z"/><path d="M35.76,24.44a1,1,0,0,1-.28.9L25.34,35.48a1,1,0,0,1-.71.3l-.19,0a1,1,0,0,1-.73-.6L16.43,17.74a1,1,0,0,1,1.31-1.31l17.42,7.28A1,1,0,0,1,35.76,24.44Z"/><path d="M35.48,78.66a1,1,0,0,1,.28.9,1,1,0,0,1-.6.73L17.74,87.57a1.09,1.09,0,0,1-.39.08,1,1,0,0,1-.92-1.39l7.28-17.42a1,1,0,0,1,1.63-.32Z"/><path d="M60.09,20.09A1,1,0,0,1,60,21a1,1,0,0,1-.83.44H44.83A1,1,0,0,1,44,21a1,1,0,0,1-.1-.94L51.07,2.62A1,1,0,0,1,52,2a1,1,0,0,1,.92.62Z"/><path d="M87.57,86.26a1,1,0,0,1-.22,1.1,1,1,0,0,1-.7.29,1.09,1.09,0,0,1-.39-.08L68.84,80.29a1,1,0,0,1-.6-.73,1,1,0,0,1,.27-.9L78.65,68.52a1,1,0,0,1,.9-.28,1,1,0,0,1,.73.6Z"/><path d="M20.09,60.1,2.62,52.93a1,1,0,0,1,0-1.86L20.09,43.9a1,1,0,0,1,1.38.93V59.17A1,1,0,0,1,21,60a1,1,0,0,1-.56.17A1,1,0,0,1,20.09,60.1Z"/><path d="M60,83a1,1,0,0,1,.09.94l-7.17,17.47A1,1,0,0,1,52,102a1,1,0,0,1-.93-.62L43.9,83.91A1,1,0,0,1,44,83a1,1,0,0,1,.83-.44H59.17A1,1,0,0,1,60,83Z"/><text x="0" y="119" fill="#000000" font-size="5px" font-weight="bold" font-family="'Helvetica Neue', Helvetica, Arial-Unicode, Arial, Sans-serif">Created by Bernd Lakenbrink</text><text x="0" y="124" fill="#000000" font-size="5px" font-weight="bold" font-family="'Helvetica Neue', Helvetica, Arial-Unicode, Arial, Sans-serif">from the Noun Project</text></svg>